<?xml version="1.0" encoding="utf-8"?>
<svg viewBox="48.224 69.251 204.685 61.992" width="204.685" height="61.992" xmlns="http://www.w3.org/2000/svg">
  <rect x="-149.178" y="-12.162" width="1536" height="864" fill="transparent"/>
  <g transform="matrix(3.12, 0, 0, 0.95, 150.470003, 100.000001)" id="94dbba77-88d5-4ab8-9f04-71b41edf93cf">
    <rect style="stroke: rgb(0,0,0); stroke-width: 0; stroke-dasharray: none; stroke-linecap: butt; stroke-dashoffset: 0; stroke-linejoin: miter; stroke-miterlimit: 4; fill: rgb(46,46,158); fill-rule: nonzero; opacity: 1;" vector-effect="non-scaling-stroke" x="-33.085" y="-33.085" rx="0" ry="0" width="66.17" height="66.17"/>
  </g>
  <g transform="matrix(0.67, 0, 0, 0.67, 75.550004, 100.019998)" id="80012c66-0dc0-43fb-aaee-b91d482587ac">
    <circle style="stroke: rgb(0,0,0); stroke-width: 0; stroke-dasharray: none; stroke-linecap: butt; stroke-dashoffset: 0; stroke-linejoin: miter; stroke-miterlimit: 4; fill: rgb(0,0,0); fill-rule: nonzero; opacity: 1;" vector-effect="non-scaling-stroke" cx="0" cy="0" r="35"/>
  </g>
  <g transform="matrix(0.67, 0, 0, 0.667092, 226.190006, 99.938219)" id="80012c66-0dc0-43fb-aaee-b91d482587ac" style="">
    <circle style="stroke: rgb(0,0,0); stroke-width: 0; stroke-dasharray: none; stroke-linecap: butt; stroke-dashoffset: 0; stroke-linejoin: miter; stroke-miterlimit: 4; fill: rgb(0,0,0); fill-rule: nonzero; opacity: 1;" vector-effect="non-scaling-stroke" cx="0" cy="0" r="35"/>
  </g>
  <g transform="matrix(2.023373, 0, 0, 1.2, 153.351778, 100.010004)" id="c0fd19a2-0584-48db-af3a-390873e250f3" style="">
    <rect style="stroke: rgb(0,0,0); stroke-width: 0; stroke-dasharray: none; stroke-linecap: butt; stroke-dashoffset: 0; stroke-linejoin: miter; stroke-miterlimit: 4; fill: rgb(0,0,0); fill-rule: nonzero; opacity: 1;" vector-effect="non-scaling-stroke" x="-37.46" y="-19.415" rx="0" ry="0" width="74.92" height="38.83"/>
  </g>
  <g transform="matrix(0.51, 0, 0, 0.51, 80.140001, 99.940004)">
    <path style="stroke: rgb(0,0,0); stroke-width: 0; stroke-dasharray: none; stroke-linecap: butt; stroke-dashoffset: 0; stroke-linejoin: miter; stroke-miterlimit: 4; fill: rgb(35,34,22); fill-rule: nonzero; opacity: 1;" vector-effect="non-scaling-stroke" transform=" translate(-50, -50)" d="M 86.118 69.092 C 85.524 67.905 84.08 67.397 82.893 67.989 C 75.169 71.807 70.63 72.655 67.917 71.807 C 65.795 71.128 64.777 69.006 64.056 66.46000000000001 C 67.40599999999999 61.83500000000001 69.399 56.14900000000001 69.399 49.99900000000001 C 69.399 34.59900000000001 56.929 22.12600000000001 41.525999999999996 22.12600000000001 C 26.125999999999998 22.12600000000001 13.652999999999995 34.59900000000001 13.652999999999995 49.99900000000001 C 13.652999999999995 65.399 26.125999999999998 77.873 41.525999999999996 77.873 C 48.824999999999996 77.873 55.443999999999996 75.116 60.408 70.536 C 61.554 73.248 63.334 75.415 66.517 76.388 C 70.28999999999999 77.578 76.02 76.72800000000001 85.012 72.27600000000001 C 86.202 71.723 86.667 70.278 86.118 69.092 z M 41.526 26.199 C 45.981 26.199 49.588 29.806 49.588 34.261 C 49.588 38.672000000000004 45.981 42.28 41.526 42.28 C 37.071000000000005 42.28 33.466 38.673 33.466 34.261 C 33.467 29.806 37.071 26.199 41.526 26.199 z M 26.211 57.595 C 21.796999999999997 57.595 18.192 53.988 18.192 49.533 C 18.192 45.079 21.796 41.472 26.252000000000002 41.472 C 30.666000000000004 41.472 34.271 45.079 34.271 49.533 C 34.271 53.987 30.667 57.595 26.211 57.595 z M 41.526 72.909 C 37.071000000000005 72.909 33.466 69.305 33.466 64.849 C 33.466 60.395 37.07 56.787000000000006 41.526 56.787000000000006 C 45.982000000000006 56.787000000000006 49.588 60.394000000000005 49.588 64.849 C 49.588 69.305 45.981 72.909 41.526 72.909 z M 56.845 57.595 C 52.39 57.595 48.782 53.988 48.782 49.533 C 48.782 45.079 52.38999999999999 41.472 56.845 41.472 C 61.297 41.472 64.905 45.079 64.905 49.533 C 64.904 53.987 61.297 57.595 56.845 57.595 z" stroke-linecap="round"/>
  </g>
  <g transform="matrix(0.19, 0, 0, 0.19, 77.680001, 100.230005)" style="" id="38e7fd0c-cd14-4cac-8b03-4ddd5847a77a">
    <text font-family="Raleway" font-size="105" font-style="normal" font-weight="900" style="stroke: none; stroke-width: 1; stroke-dasharray: none; stroke-linecap: butt; stroke-dashoffset: 0; stroke-linejoin: miter; stroke-miterlimit: 4; fill: rgb(185,205,15); fill-rule: nonzero; opacity: 1; white-space: pre;"><tspan x="-38.8" y="32.98">G</tspan></text>
  </g>
  <g transform="matrix(0.19, 0, 0, 0.19, 157.539996, 100.120004)" style="" id="5b21336f-95f6-4284-bf83-1bb86a32ef16">
    <text font-family="Raleway" font-size="105" font-style="normal" font-weight="900" style="stroke: none; stroke-width: 1; stroke-dasharray: none; stroke-linecap: butt; stroke-dashoffset: 0; stroke-linejoin: miter; stroke-miterlimit: 4; fill: rgb(229,221,221); fill-rule: nonzero; opacity: 1; white-space: pre;"><tspan x="-273.05" y="32.98">GAMEWEB</tspan></text>
  </g>
</svg>